<svg viewBox="0 0 736 402" fill="none" xmlns="http://www.w3.org/2000/svg"><g clip-path="url(#a)"><path d="M115.516 157.048C93.174 150.733 57.448 142.332 18.344 152.747 11.081 154.681 6.147 157.881 2.69 163.954.966 166.988-.621 170.27.243 173.617.991 176.459 5.06 177.458 8.326 177.978 11.47 178.473 18.592 178.847 20.513 176.56 21.514 175.363 21.539 172.001 16.322 170.906 14.396 170.502 9.155 170.32 8.755 169.437 8.755 169.437 8.937 168.826 11.813 167.937 13.082 167.544 22.403 163.712 47.869 164.535 78.152 165.509 104.603 172.592 132.576 183.592 159.947 194.355 190.705 213.821 208.746 236.998 215.57 245.767 224.041 260.175 225.159 272.306 227.863 301.768 199.051 326.63 140.552 324.636 130.554 324.293 118.403 321.925 118.403 321.925L117.189 265.046C117.189 265.046 141.942 264.859 169.309 273.856 171.639 274.623 173.979 276.142 174.192 278.399 174.343 280.136 172.973 281.625 171.432 282.968 168.596 285.441 164.694 286.517 163.835 287.567 163.213 288.324 163.208 289.48 164.017 290.116 166.074 291.706 171.123 292.787 174.53 292.489 181.43 291.878 186.02 287.895 189.487 282.675 193.182 277.112 195.285 262.966 175.627 253.945 150.217 242.278 117.007 244.474 117.007 244.474 117.007 244.474 116.836 236.761 116.492 231.627 115.921 223.206 113.585 206.653 105.902 201.882 104.497 201.019 102.773 200.918 101.803 202.225 100.312 204.169 98.846 211.575 98.522 213.498 95.631 230.718 95.783 246.161 95.631 246.378 95.545 246.479 95.454 246.564 95.333 246.655 95.03 246.847 76.666 249.038 58.939 256.706 51.862 259.766 41.743 265.289 38.674 272.397 34.716 281.569 41.677 291.61 53.429 302.727 63.382 312.142 78.056 322.052 88.928 327.181 91.698 328.488 94.954 330.099 94.954 330.099 94.954 330.099 95.656 336.671 96.222 340.468 98.265 354.154 108.713 352.16 111.594 351.574 116.275 350.62 117.174 347.51 117.821 343.906 118.175 341.937 118.029 339.09 118.029 339.09 118.029 339.09 125.105 340.72 129.857 341.583 143.676 344.133 158.689 344.572 171.7 342.8 223.738 335.697 236.85 311.213 240.995 304.675 248.198 293.307 263.478 261.634 217.45 214.619 206.936 203.876 176.542 174.293 115.506 157.043L115.516 157.048ZM46.797 285.184C44.907 283.235 43.451 281.125 43.896 278.576 44.32 276.117 49.143 273.946 51.579 273.23 75.053 266.318 94.949 265.965 94.949 265.965 94.949 265.965 94.762 274.375 94.721 282.882 94.645 298.996 95.07 315.352 95.07 315.352 95.07 315.352 68.593 307.649 46.797 285.179V285.184ZM285.219 225.983C296.223 221.676 304.72 215.497 313.323 206.703 318.348 201.599 322.755 193.204 321.138 185.556 320.329 181.755 318.59 179.134 315.411 176.398 313.829 175.04 310.204 173.122 307.258 172.536 306.403 172.365 305.493 172.299 305.124 172.062 304.705 171.794 304.371 171.244 303.962 170.734 302.036 168.291 298.21 165.953 295.46 165.009 287.018 162.091 275.756 164.292 268.068 167.528 259.94 170.966 252.444 176.005 246.747 182.103 231.8 198.106 238.367 210.782 239.696 213.145 240.828 215.144 242.926 217.3 243.386 219.39 243.664 220.631 243.416 222.257 243.467 223.726 243.573 227.093 245.039 230.566 247.571 232.803 249.386 234.398 251.994 234.873 254.618 230.9 255.497 229.567 256.963 226.856 256.963 226.856 256.963 226.856 260.011 228.618 267.376 229.133 272.865 229.516 280.387 227.866 285.219 225.983ZM249.957 206.643C249.957 206.643 249.447 205.577 249.118 204.775 246.853 199.151 251.853 192.81 256.417 188.923 265.303 181.361 272.865 181.542 272.865 181.542 272.865 181.542 271.056 182.991 269.554 184.304 256.584 195.637 249.957 206.643 249.957 206.643ZM269.408 206.436C274.842 199.439 284.9 190.756 291.916 186.576 297.411 183.299 302.157 182.401 305.701 183.956 307.803 184.879 309.487 186.783 309.775 189.332 310.715 197.222 301.596 203.816 295.5 207.37 281.645 215.442 265.258 213.614 264.838 212.882 264.778 212.69 268.154 208.086 269.413 206.436H269.408ZM599.285 249.316C581.649 237.094 553.196 275.85 540.68 295.068 538.815 285.285 545.442 272.871 545.442 272.871 545.442 272.871 556.067 254.495 557.573 250.765 559.024 247.009 559.868 239.29 558.043 238.523 556.385 237.76 553.524 240.234 553.524 240.234 529.661 261.624 526.325 285.356 526.325 285.356 524.07 298.133 526.704 307.109 530.576 313.389 517.312 341.614 510.822 366.234 512.55 380.788 514.158 391.869 522.109 399.881 526.931 401.572 531.804 403.602 532.668 397.751 532.668 397.751 536.616 367.643 543.511 347.515 551.725 327.62 576.599 333.329 595.317 309.143 601.943 297.588 605.841 290.651 607.938 281.388 607.938 272.674 607.938 262.749 605.204 253.541 599.285 249.311V249.316ZM583.074 297.31C580.218 300.016 570.766 305.327 560.965 306.427 570.306 288.344 581.906 275.037 588.336 267.939 595.817 259.523 596.798 267.167 596.798 267.167 598.542 282.019 587.719 293.196 583.069 297.315L583.074 297.31ZM517.565 311.627C518.753 307.104 514.633 302.146 510.908 301.222 507.43 300.505 480.736 305.503 477.546 306.361 474.114 307.28 475.646 304.059 475.646 304.059L479.77 290.121C479.77 290.121 505.246 289.142 508.957 288.521 512.384 287.905 512.591 285.487 512.591 285.487 512.591 285.487 513.031 281.499 512.904 277.773 512.53 273.785 509.336 274.153 509.336 274.153 499.484 273.124 485.942 274.285 485.942 274.285L489.359 263.587C489.359 263.587 516.458 262.27 526.764 259.897 532.057 258.65 528.943 253.46 528.943 253.46 522.518 240.628 515.113 241.35 515.113 241.35 493.797 240.638 462.822 246.282 459.445 247.953 456.286 249.386 456.63 251.764 460.75 256.949 465.172 262.411 472.613 261.901 472.613 261.901L466.082 275.395C460.75 275.769 458.92 277.43 458.92 277.43 455.846 280.706 460.087 290.389 460.087 290.389 460.087 290.389 450.832 311.122 457.545 322.072 464.753 333.567 473.28 333.016 473.28 333.016 489.506 334.198 516.149 317.23 517.57 311.627H517.565ZM424.421 229.259C424.421 229.259 420.645 227.497 419.69 231.258 418.729 234.979 420.155 238.947 420.155 238.947 429.552 270.786 431.685 289.596 431.685 289.596 431.685 289.596 432.12 295.129 431.043 295.437 430.29 296.007 429.451 295.22 429.451 295.22 428.374 295.26 418.072 278 418.072 278L416.071 274.618C404.733 256.348 397.864 250.123 397.864 250.123 396.256 248.619 392.132 244.485 386.991 250.184 381.845 255.919 377.822 274.34 376.199 291.656 374.819 308.936 375.87 318.77 378.393 322.92 381.173 327.12 386.531 328.554 390.949 324.954 395.619 321.37 394.74 298.572 395.478 286.885 396.185 275.143 397.343 277.243 397.343 277.243 398.374 276.965 403.722 287.708 403.722 287.708 403.722 287.708 417.815 316.524 426.665 320.789 435.633 325.045 442.846 318.195 445.575 311.778 448.35 305.316 453.066 283.942 446.045 260.255 438.979 236.574 424.416 229.259 424.416 229.259H424.421ZM277.991 290.237C277.627 282.357 276.686 262.234 274.483 253.142 273.527 249.23 271.945 245.661 268.088 244.192 267.644 244.025 267.128 243.874 266.794 243.818 264.383 243.349 262.998 246.671 262.346 248.321 260.441 253.208 259.066 264.88 258.692 268.52 257.559 279.545 256.639 305.675 258.555 318.987 259.359 324.566 261.199 328.19 266.845 329.356 269.135 329.831 273.305 329.74 275.14 328.569 276.742 327.574 277.859 325.636 278.233 323.97 279.269 319.331 278.865 312.753 278.658 307.805 278.41 301.964 278.264 296.144 277.996 290.237H277.991ZM369.122 246.211C356.94 239.744 336.888 239.729 324.484 241.269 311.67 242.854 294.52 246.847 287.195 257.363 284.4 261.376 282.762 267.545 284.046 272.568 284.774 275.36 286.786 277.48 289.707 279 294.899 281.701 312.216 282.276 319.935 283.104 327.209 283.881 340.604 285.174 347.989 288.253 347.989 288.253 354.979 290.687 354.934 294.675 354.919 296.644 353.443 298.214 351.946 299.279 340.988 307.033 325.925 309.234 312.53 309.017 307.99 308.956 304.25 308.239 299.64 306.266 297.679 305.407 295.131 303.842 295.475 301.167 296.026 296.881 300.929 295.826 304.826 296.194 307 296.391 309.84 297.32 311.974 298.153 320.567 301.54 324.484 304.393 332.046 303.242 334.866 302.813 344.642 300.697 345.957 296.674 346.285 295.694 345.815 294.634 345.092 293.902 344.061 292.847 338.182 290.565 336.585 289.985 330.828 287.94 319.915 286.067 313.849 285.835 305.893 285.552 294.949 287.178 290.41 293.776 286.321 299.723 285.401 311.692 305.701 321.764 315.138 326.444 326.567 328.523 337.111 327.367 343.136 326.676 360.489 323.98 367.05 310.193 370.578 302.777 370.234 292.872 366.433 285.835 363.936 281.196 360.883 275.022 338.238 272.174 334.619 271.72 307.98 268.641 305.534 268.257 304.179 268.045 297.942 267.308 300.13 264.93 300.747 264.244 302.637 263.739 303.734 263.426 317.721 259.609 335.473 260.043 350.157 259.221 353.438 259.019 360.898 258.569 364.507 257.423 367.945 256.353 370.78 253.925 371.574 250.154 371.968 248.15 371.008 247.206 369.127 246.206L369.122 246.211ZM732.477 263.426H690.624C690.164 248.978 688.698 234.711 686.246 220.682 685.827 218.274 683.729 216.517 681.293 216.517H670.01C667.807 216.517 666.138 218.526 666.548 220.697 669.181 234.696 670.748 248.962 671.239 263.426H628.718C626.772 263.426 625.195 265.006 625.195 266.96V279.777C625.195 281.731 626.772 283.311 628.718 283.311H671.239C670.748 297.779 669.176 312.041 666.548 326.04 666.138 328.211 667.807 330.22 670.01 330.22H681.293C683.729 330.22 685.827 328.468 686.246 326.055 688.698 312.026 690.164 297.759 690.624 283.311H732.477C734.423 283.311 736 281.731 736 279.777V266.96C736 265.006 734.423 263.426 732.477 263.426ZM156.156 108.307C157.814 109.458 160.14 108.605 161.803 106.823 176.158 91.37 191.863 77.931 209.752 65.73 327.118-14.331 499.413-2.695 600.225 98.766 633.338 131.923 651.566 167.513 661.129 195.486 661.827 197.53 663.737 198.914 665.891 198.914H677.466C679.872 198.914 681.581 196.546 680.807 194.259 668.261 157.154 643.968 116.425 608.671 83.303 502.855-16.244 331.439-27.31 211.996 54.083 192.454 67.264 173.039 84.146 155.979 103.44 154.296 105.344 154.867 107.413 156.151 108.307H156.156Z" fill="#fff"/></g></svg>
